<?xml version="1.0" encoding="utf-8"?>
<!-- Generator: Adobe Illustrator 19.2.0, SVG Export Plug-In . SVG Version: 6.00 Build 0)  -->
<svg xmlns="http://www.w3.org/2000/svg" xmlns:xlink="http://www.w3.org/1999/xlink" version="1.1" id="sunriseshine" x="0px" y="0px" viewBox="0 0 215.6537 195.3116" enable-background="new 0 0 215.6537 195.3116" xml:space="preserve" width="512" height="512">
<g>
	<path fill="#D0E8FF" d="M115.6146,139.3116c-27.3281,0-49.7969,21.1895-51.8477,48h103.6953   C165.4115,160.5011,142.9427,139.3116,115.6146,139.3116z"/>
	<path fill="#1C71DA" d="M175.412,187.3116c-2.074-31.2178-28.0618-56-59.7974-56s-57.7234,24.7822-59.7974,56H7.6146v8h52h112   h44.0391v-8H175.412z M63.7669,187.3116c2.0508-26.8105,24.5195-48,51.8477-48s49.7969,21.1895,51.8477,48H63.7669z"/>
	<path fill="#1C71DA" d="M115.6146,127.3116c2.2109,0,4-1.791,4-4V55.1945c0-2.209-1.7891-4-4-4s-4,1.791-4,4v68.1172   C111.6146,125.5206,113.4037,127.3116,115.6146,127.3116z"/>
	<path fill="#1C71DA" d="M166.9349,147.2491c1.0234,0,2.0469-0.3906,2.8281-1.1719l41-41.002c1.5625-1.5625,1.5625-4.0938,0-5.6562   s-4.0938-1.5625-5.6562,0l-41,41.002c-1.5625,1.5625-1.5625,4.0938,0,5.6562C164.888,146.8585,165.9115,147.2491,166.9349,147.2491   z"/>
	<path fill="#1C71DA" d="M61.2865,146.0773c0.7812,0.7812,1.8047,1.1719,2.8281,1.1719s2.0469-0.3906,2.8281-1.1719   c1.5625-1.5625,1.5625-4.0938,0-5.6562l-41-41.002c-1.5625-1.5625-4.0938-1.5625-5.6562,0s-1.5625,4.0938,0,5.6562   L61.2865,146.0773z"/>
</g>
<path fill="#FF5D5D" d="M4,22.1438c-1.0234,0-2.0469-0.3906-2.8281-1.1714c-1.5625-1.5625-1.5625-4.0952,0-5.6572L15.3145,1.1731  c1.5605-1.5615,4.0938-1.5615,5.6562,0c1.5625,1.5625,1.5625,4.0952,0,5.6572L6.8281,20.9724  C6.0479,21.7532,5.0234,22.1438,4,22.1438z"/>
<path fill="#FF5D5D" d="M18.1426,22.1423c-1.0234,0-2.0479-0.3906-2.8281-1.1714L1.1719,6.8284  c-1.5625-1.5625-1.5625-4.0947,0-5.6572c1.5605-1.5615,4.0957-1.5615,5.6562,0l14.1426,14.1426  c1.5625,1.5625,1.5625,4.0947,0,5.6572C20.1904,21.7517,19.166,22.1423,18.1426,22.1423z"/>
<path fill="#00D40B" d="M66,102.1438c-7.7197,0-14-6.2803-14-14s6.2803-14,14-14s14,6.2803,14,14S73.7197,102.1438,66,102.1438z   M66,82.1438c-3.3086,0-6,2.6914-6,6s2.6914,6,6,6s6-2.6914,6-6S69.3086,82.1438,66,82.1438z"/>
<path fill="#FFC504" d="M163.3135,80.7693c-1.0234,0-2.0479-0.3906-2.8281-1.1714l-11.3135-11.3135  c-1.5625-1.5625-1.5625-4.0947,0-5.6572l11.3135-11.3135c1.5605-1.5615,4.0957-1.5615,5.6562,0l11.3135,11.3135  c1.5625,1.5625,1.5625,4.0947,0,5.6572l-11.3135,11.3135C165.3613,80.3787,164.3369,80.7693,163.3135,80.7693z M157.6572,65.4558  l5.6562,5.6567l5.6562-5.6567l-5.6562-5.6567L157.6572,65.4558z"/>
</svg>
